<svg xmlns="http://www.w3.org/2000/svg" width="1495" height="1495" viewBox="0 0 1495 1495">
  <g id="Grupo_2" data-name="Grupo 2" transform="translate(-132 -343)">
    <circle id="Elipse_1" data-name="Elipse 1" cx="747.5" cy="747.5" r="747.5" transform="translate(132 343)" fill="#f70"/>
    <path id="Subtração_2" data-name="Subtração 2" d="M57.046,256.849H0v-268.3H50.572L115.554,74.1c-.015.078-.029.153-.039.224l6.021,63.233,21.256,74.2L57.046,98.87V256.848Z" transform="translate(246.028 988.932)" fill="#fff"/>
    <g id="Componente_1_3" data-name="Componente 1 – 3" transform="translate(358 430)">
      <path id="Subtração_1" data-name="Subtração 1" d="M608.5,1182a623.87,623.87,0,0,1-195.233-31.079c-15.193-5-30.371-10.654-45.114-16.817-14.636-6.119-29.206-12.887-43.307-20.117-14.019-7.187-27.926-15.012-41.336-23.257-13.35-8.207-26.539-17.035-39.2-26.237-12.624-9.174-25.04-18.951-36.9-29.058-11.844-10.092-23.431-20.764-34.439-31.719s-21.712-22.471-31.811-34.221c-10.118-11.772-19.881-24.073-29.019-36.563-9.171-12.535-17.94-25.571-26.063-38.746-8.166-13.244-15.885-26.96-22.942-40.769-7.1-13.9-13.718-28.242-19.658-42.632-5.986-14.5-11.439-29.418-16.208-44.336l34.063,44.843h50.1V545.461H54.912V701.988L1.41,631.555C.474,618.138,0,604.493,0,591a583.363,583.363,0,0,1,3.142-60.426A573.941,573.941,0,0,1,47.819,360.955c7.635-17.532,16.256-34.914,25.624-51.662,9.3-16.629,19.556-33.024,30.479-48.728,10.871-15.628,22.657-30.936,35.029-45.5,12.343-14.526,25.556-28.646,39.273-41.969s28.256-26.156,43.212-38.144c14.992-12.017,30.753-23.464,46.844-34.022,16.169-10.609,33.049-20.569,50.171-29.6,17.244-9.1,35.14-17.472,53.191-24.887,18.218-7.484,37.028-14.17,55.906-19.873C446.639,20.8,466.259,15.9,485.863,12.007c19.86-3.947,40.188-6.96,60.418-8.956C566.807,1.027,587.739,0,608.5,0s41.69,1.027,62.215,3.051c20.23,2,40.558,5.008,60.418,8.956,19.6,3.9,39.224,8.8,58.315,14.563,18.878,5.7,37.687,12.389,55.906,19.873C863.4,53.859,881.3,62.232,898.542,71.33c17.122,9.034,34,18.994,50.171,29.6,16.091,10.558,31.852,22,46.844,34.022,14.956,11.988,29.495,24.822,43.212,38.144s26.931,27.443,39.273,41.969c12.373,14.562,24.159,29.869,35.029,45.5,10.923,15.7,21.178,32.1,30.479,48.728,9.367,16.748,17.988,34.13,25.623,51.662a576.1,576.1,0,0,1,0,460.087c-7.635,17.532-16.256,34.914-25.623,51.661-9.3,16.63-19.556,33.024-30.479,48.728-10.871,15.628-22.656,30.935-35.029,45.5-12.343,14.526-25.556,28.646-39.273,41.969s-28.254,26.155-43.212,38.144c-14.993,12.018-30.754,23.464-46.844,34.022-16.168,10.609-33.048,20.569-50.171,29.6-17.246,9.1-35.142,17.472-53.191,24.886-18.217,7.484-37.026,14.17-55.906,19.874-19.09,5.767-38.71,10.667-58.315,14.563-19.86,3.947-40.188,6.96-60.418,8.956C650.186,1180.971,629.254,1182,608.5,1182ZM866.681,545.46V711.093h.1a110.71,110.71,0,0,0,2.534,21.583,109.36,109.36,0,0,0,29.671,54.068,106.532,106.532,0,0,0,150.853.011,109.449,109.449,0,0,0,32.215-75.661h.063V545.46H1024.2V711.093a47.9,47.9,0,0,1-4.684,18.413,53.137,53.137,0,0,1-4.85,8.2,54.814,54.814,0,0,1-6.22,7.225,54.239,54.239,0,0,1-7.363,6.019,51.52,51.52,0,0,1-8.279,4.584,44.913,44.913,0,0,1-36.8,0,51.524,51.524,0,0,1-8.279-4.584,54.248,54.248,0,0,1-7.363-6.019,54.831,54.831,0,0,1-6.22-7.225,53.154,53.154,0,0,1-4.85-8.2,47.893,47.893,0,0,1-4.684-18.413V545.46Zm-257.164,0h0v56.906h80.722V811.289h58.155V602.367h80.721V545.461h-219.6ZM468.9,733.6h0l47.018,77.689h66.844L550.8,758.469l-20.424-33.744-28.048-46.35,80.439-132.914H515.918L478.3,607.614l-9.4,15.535-9.4-15.534-37.615-62.154H355.043l80.439,132.914-28.051,46.35L387.01,758.469l-31.967,52.82h66.844L468.9,733.6ZM148.989,545.461h0V811.289h176.62V754.713h-120.1v-50.2H321.15V652.239h305.509v-50.2h120.1V545.461H148.989Z" fill="#fff"/>
    </g>
  </g>
</svg>
